<?xml version="1.0" encoding="utf-8"?>
<!-- Generator: Adobe Illustrator 26.0.2, SVG Export Plug-In . SVG Version: 6.00 Build 0)  -->
<svg version="1.1" id="Layer_1" xmlns="http://www.w3.org/2000/svg" xmlns:xlink="http://www.w3.org/1999/xlink" x="0px" y="0px"
	 viewBox="0 0 180 180" style="enable-background:new 0 0 180 180;" xml:space="preserve">
<style type="text/css">
	.st0{fill:#1D67BF;}
</style>
<path class="st0" d="M112,78.5c-8.1,0-14.6,6.5-14.6,14.6c0,2.8,0.8,5.5,2.2,7.7h8.2c3.1,0,4.5,3.9,2.1,5.9l-0.9,0.7
	c1,0.2,2,0.3,3,0.3c8.1,0,14.6-6.5,14.6-14.6S120.1,78.5,112,78.5z"/>
<path class="st0" d="M76.7,106.6c-2.4-2-1-5.9,2.1-5.9H86c1.4-2.2,2.2-4.9,2.2-7.7c0-8.1-6.5-14.6-14.6-14.6S58.9,85,58.9,93.1
	s6.5,14.6,14.6,14.6c1.3,0,2.6-0.2,3.9-0.5L76.7,106.6z"/>
<path class="st0" d="M115.7,49.1H52.3v63.3c0,10.2,8.2,18.4,18.4,18.4h50.7c7,0,12.6-5.6,12.6-12.6V67.5
	C134.1,57.4,125.8,49.1,115.7,49.1z M59.5,75.2c0-7.7,6.3-14,14-14s14,6.3,14,14s-6.3,14-14,14C65.8,89.3,59.5,83,59.5,75.2z
	 M109.9,106.8l-14.5,11.9c-1.2,1-3,1-4.2,0l-14.5-11.9c-2.4-2-1-5.9,2.1-5.9h28.9C110.9,100.9,112.3,104.8,109.9,106.8z M112,89.3
	c-7.7,0-14-6.3-14-14s6.3-14,14-14s14,6.3,14,14S119.7,89.3,112,89.3z"/>
<rect x="133.2" y="89.3" class="st0" width="14.8" height="3.9"/>
<rect x="37.5" y="89.3" class="st0" width="14.8" height="3.9"/>
<circle class="st0" cx="34.2" cy="91.2" r="5.1"/>
<circle class="st0" cx="152.2" cy="91.2" r="5.1"/>
<path class="st0" d="M90.5,108.6l-5.3,8.3c-1.4,2.2,0.2,5,2.7,5h10.5c2.6,0,4.1-2.8,2.7-5l-5.3-8.3
	C94.7,106.6,91.7,106.6,90.5,108.6z"/>
</svg>
