<?xml version="1.0" encoding="utf-8"?>
<!-- Generator: Adobe Illustrator 26.0.2, SVG Export Plug-In . SVG Version: 6.00 Build 0)  -->
<svg version="1.1" id="Layer_1" xmlns="http://www.w3.org/2000/svg" xmlns:xlink="http://www.w3.org/1999/xlink" x="0px" y="0px"
	 viewBox="0 0 300 300" style="enable-background:new 0 0 300 300;" xml:space="preserve">
<style type="text/css">
	.st0{fill:#1D67BF;}
</style>
<path class="st0" d="M195.6,120.72c-17.25,0-31.23,13.98-31.23,31.23c0,6.07,1.74,11.74,4.74,16.54h17.5
	c6.63,0,9.61,8.31,4.49,12.52l-1.85,1.52c2.05,0.42,4.18,0.65,6.35,0.65c17.25,0,31.23-13.98,31.23-31.23
	S212.85,120.72,195.6,120.72z"/>
<path class="st0" d="M120.3,180.88c-5.12-4.21-2.14-12.52,4.49-12.52h15.24c2.95-4.77,4.65-10.39,4.65-16.4
	c0-17.25-13.98-31.23-31.23-31.23c-17.25,0-31.23,13.98-31.23,31.23s13.98,31.23,31.23,31.23c2.87,0,5.65-0.4,8.29-1.12
	L120.3,180.88z"/>
<path class="st0" d="M203.49,57.98H68.15v135.34c0,21.71,17.6,39.31,39.31,39.31h108.38c14.89,0,26.96-12.07,26.96-26.96V97.29
	C242.8,75.58,225.2,57.98,203.49,57.98z M83.52,113.78c0-16.53,13.4-29.93,29.93-29.93c16.53,0,29.93,13.4,29.93,29.93
	c0,16.53-13.4,29.93-29.93,29.93C96.92,143.71,83.52,130.31,83.52,113.78z M191.1,181.15l-30.91,25.42c-2.61,2.14-6.37,2.14-8.98,0
	l-30.91-25.42c-5.12-4.21-2.14-12.52,4.49-12.52h61.82C193.24,168.63,196.22,176.94,191.1,181.15z M195.6,143.71
	c-16.53,0-29.93-13.4-29.93-29.93c0-16.53,13.4-29.93,29.93-29.93c16.53,0,29.93,13.4,29.93,29.93
	C225.53,130.31,212.13,143.71,195.6,143.71z"/>
<rect x="240.85" y="143.71" class="st0" width="31.63" height="8.24"/>
<rect x="36.52" y="143.71" class="st0" width="31.63" height="8.24"/>
<circle class="st0" cx="29.48" cy="147.83" r="10.86"/>
<circle class="st0" cx="281.48" cy="147.83" r="10.86"/>
<path class="st0" d="M149.62,185.03l-11.25,17.74c-2.93,4.62,0.39,10.66,5.86,10.66h22.51c5.47,0,8.79-6.04,5.86-10.66l-11.25-17.74
	C158.61,180.74,152.34,180.74,149.62,185.03z"/>
</svg>
