<?xml version="1.0" encoding="utf-8"?>
<!-- Generator: Adobe Illustrator 26.0.2, SVG Export Plug-In . SVG Version: 6.00 Build 0)  -->
<svg version="1.1" id="Layer_1" xmlns="http://www.w3.org/2000/svg" xmlns:xlink="http://www.w3.org/1999/xlink" x="0px" y="0px"
	 viewBox="0 0 120 120" style="enable-background:new 0 0 120 120;" xml:space="preserve">
<style type="text/css">
	.st0{fill:#1D67BF;}
</style>
<path class="st0" d="M74.6,52c-6.2,0-11.3,5.1-11.3,11.3c0,2.2,0.6,4.3,1.7,6h6.3c2.4,0,3.5,3,1.6,4.5l-0.7,0.6
	c0.7,0.2,1.5,0.2,2.3,0.2c6.2,0,11.3-5.1,11.3-11.3S80.8,52,74.6,52z"/>
<path class="st0" d="M47.3,73.8c-1.9-1.5-0.8-4.5,1.6-4.5h5.5c1.1-1.7,1.7-3.8,1.7-5.9c0-6.2-5.1-11.3-11.3-11.3
	s-11.3,5.1-11.3,11.3s5.1,11.3,11.3,11.3c1,0,2-0.1,3-0.4L47.3,73.8z"/>
<path class="st0" d="M77.5,29.3h-49v49c0,7.9,6.4,14.2,14.2,14.2h39.2c5.4,0,9.8-4.4,9.8-9.8V43.5C91.7,35.7,85.3,29.3,77.5,29.3z
	 M34,49.5c0-6,4.9-10.8,10.8-10.8s10.8,4.9,10.8,10.8s-4.9,10.8-10.8,10.8C38.9,60.3,34,55.5,34,49.5z M73,73.9l-11.2,9.2
	c-0.9,0.8-2.3,0.8-3.3,0l-11.2-9.2c-1.9-1.5-0.8-4.5,1.6-4.5h22.4C73.7,69.4,74.8,72.4,73,73.9z M74.6,60.3c-6,0-10.8-4.9-10.8-10.8
	s4.9-10.8,10.8-10.8c6,0,10.8,4.9,10.8,10.8S80.6,60.3,74.6,60.3z"/>
<rect x="91" y="60.3" class="st0" width="11.5" height="3"/>
<rect x="17" y="60.3" class="st0" width="11.5" height="3"/>
<circle class="st0" cx="14.5" cy="61.8" r="3.9"/>
<circle class="st0" cx="105.7" cy="61.8" r="3.9"/>
<path class="st0" d="M58,75.3l-4.1,6.4c-1.1,1.7,0.1,3.9,2.1,3.9h8.1c2,0,3.2-2.2,2.1-3.9l-4.1-6.4C61.2,73.7,58.9,73.7,58,75.3z"/>
</svg>
